<svg width="305" height="98" viewBox="0 0 305 98" fill="none" xmlns="http://www.w3.org/2000/svg">
<path d="M0 96V0H18.33V79.0667H60.1117V96H0Z" fill="#3E83AC"/>
<path d="M111.061 98C103.243 98 96.3696 96.4444 90.4392 93.3333C84.5089 90.1778 79.8815 85.7556 76.5569 80.0667C73.2324 74.3778 71.5701 67.6889 71.5701 60V0.133332L90.1697 0V59.8667C90.1697 63.0222 90.7088 65.8889 91.787 68.4667C92.8653 71.0444 94.3479 73.2667 96.2348 75.1333C98.1666 77 100.39 78.4444 102.906 79.4667C105.467 80.4444 108.185 80.9333 111.061 80.9333C114.026 80.9333 116.766 80.4222 119.282 79.4C121.843 78.3778 124.067 76.9333 125.954 75.0667C127.841 73.2 129.301 70.9778 130.334 68.4C131.412 65.8222 131.951 62.9778 131.951 59.8667V0H150.551V60C150.551 67.6889 148.889 74.3778 145.564 80.0667C142.24 85.7556 137.612 90.1778 131.682 93.3333C125.752 96.4444 118.878 98 111.061 98Z" fill="#3E83AC"/>
<path d="M169.364 96V0H185.807L217.885 63.7333L249.963 0H266.406V96H249.289V38.6667L221.12 96H214.65L186.481 38.6667V96H169.364Z" fill="#3E83AC"/>
<path d="M286.67 96V0H305V96H286.67Z" fill="#3E83AC"/>
</svg>
