<svg width="147" height="24" viewBox="0 0 147 24" fill="none" xmlns="http://www.w3.org/2000/svg">
<path d="M1 14.2489C4.43637 16.5832 9.23634 16.5831 12.6727 14.2489C12.6747 14.2475 12.6767 14.2462 12.6787 14.2448C17.0917 11.2507 23.2532 11.2518 27.6648 14.2486C27.6676 14.2505 27.6704 14.2524 27.6732 14.2543C31.1091 16.5832 35.9044 16.5815 39.338 14.249C39.3392 14.2483 39.3401 14.2475 39.3413 14.2468C43.7544 11.2504 49.9175 11.2511 54.3302 14.2488C57.7645 16.5817 62.5607 16.5833 65.9968 14.2532C65.9991 14.2517 66.0013 14.2501 66.0036 14.2486C70.417 11.2506 76.5819 11.2507 80.9951 14.2486L80.9965 14.2496C84.4329 16.5831 89.2323 16.583 92.6684 14.249C92.6718 14.2466 92.6754 14.2442 92.6789 14.2419C97.0894 11.2519 103.245 11.2529 107.654 14.2444C107.657 14.246 107.659 14.2475 107.661 14.249C111.098 16.5834 115.898 16.5833 119.334 14.249C119.336 14.2478 119.338 14.2466 119.339 14.2454C123.751 11.2518 129.91 11.2515 134.321 14.245C134.323 14.2466 134.326 14.2481 134.328 14.2493C137.764 16.5836 142.564 16.5836 146 14.2493" stroke="#2E7BEE" stroke-width="2" stroke-linecap="round"/>
<path d="M73.2759 12.1053C73.2759 12.1053 68.6935 3.81704 69.1036 1.93074C69.5137 0.044432 72.2915 1.77098 72.2915 1.77098C72.2915 1.77098 74.6767 -0.858037 75.989 0.290317C77.3012 1.43867 75.49 11.5309 74.834 12.1053C74.1781 12.6796 73.2759 12.1053 73.2759 12.1053Z" fill="#2E7BEE"/>
<path d="M74.2836 12.0287C74.2836 12.0287 82.2243 5.56805 84.1228 5.07181C86.0214 4.57557 84.257 9.01221 84.257 9.01221C84.257 9.01221 86.8222 9.33112 86.5158 11.3298C86.2097 13.3281 72.524 14.3838 74.2836 12.0287Z" fill="#2E7BEE"/>
<path d="M74.3995 12.3289C74.3995 12.3289 82.7861 9.47366 82.7634 10.0271C82.7408 10.5809 74.4546 12.6415 74.3995 12.6415C74.3444 12.6415 74.3995 12.3289 74.3995 12.3289Z" fill="#DDFF1F"/>
<path d="M73.6036 12.1086C73.6036 12.1086 65.7165 5.22418 63.9119 5.35801C62.1072 5.49183 63.0431 7.92414 63.0431 8.57954C63.0431 9.23463 60.1691 10.5046 61.2385 11.641C62.3078 12.7769 75.0738 13.9133 73.6036 12.1086Z" fill="#2E7BEE"/>
<path d="M72.7466 12.8799C72.7466 12.8799 67.2495 14.2637 65.3719 16.4889C63.4945 18.714 65.1108 20.0421 66.7104 19.9724C66.7104 19.9724 66.9232 23.8788 68.9397 22.5576C70.9563 21.2364 74.8714 12.8724 74.2204 12.4719C73.5692 12.0713 72.7466 12.8799 72.7466 12.8799Z" fill="#2E7BEE"/>
<path d="M79.3077 21.5985C79.3077 21.5985 82.554 22.81 82.7593 20.7541C82.965 18.6982 74.8532 11.5429 74.2362 12.9729C73.6196 14.4029 75.539 23.9301 76.5669 23.9986C77.5949 24.0669 79.3077 21.5985 79.3077 21.5985Z" fill="#2E7BEE"/>
<path d="M74.775 12.7852C74.775 12.7852 78.3118 19.5617 77.9735 19.7462C77.6353 19.9307 74.375 13.0531 74.375 13.0531L74.775 12.7852Z" fill="#DDFF1F"/>
<path d="M73.7628 12.6415C73.6674 12.6722 67.6699 18.4843 68.1313 18.3925C68.5926 18.3007 74.1299 12.7851 74.1299 12.7851L73.7628 12.6415Z" fill="#DDFF1F"/>
<path d="M74.2202 12.4719C74.2202 12.4719 72.9604 4.67542 73.1449 4.12196C73.3291 3.5682 74.9263 11.4106 74.2202 12.4719Z" fill="#DDFF1F"/>
<path d="M73.1264 12.3607C73.1264 12.3607 65.3615 10.7003 65.3019 10.3349C65.1174 9.20471 73.36 11.9649 73.36 11.9649L73.1264 12.3607Z" fill="#DDFF1F"/>
<path d="M73.1139 13.053C73.1139 13.053 72.6526 12.5491 72.9757 11.7956C73.2987 11.0422 74.2674 10.5653 75.067 11.288C75.8667 12.0108 75.0515 13.4718 74.4212 13.5487C73.7905 13.6256 73.1139 13.053 73.1139 13.053Z" fill="white"/>
</svg>
