<svg width="147" height="24" viewBox="0 0 147 24" fill="none" xmlns="http://www.w3.org/2000/svg">
<path d="M1 12.2489C4.43637 14.5832 9.23634 14.5831 12.6727 12.2489C12.6747 12.2475 12.6767 12.2462 12.6787 12.2448C17.0917 9.25073 23.2532 9.25178 27.6648 12.2486C27.6676 12.2505 27.6704 12.2524 27.6732 12.2543C31.1091 14.5832 35.9044 14.5815 39.338 12.249C39.3392 12.2483 39.3401 12.2475 39.3413 12.2468C43.7544 9.25036 49.9175 9.25111 54.3302 12.2488C57.7645 14.5817 62.5607 14.5833 65.9968 12.2532C65.9991 12.2517 66.0013 12.2501 66.0036 12.2486C70.417 9.25059 76.5819 9.25066 80.9951 12.2486L80.9965 12.2496C84.4329 14.5831 89.2323 14.583 92.6684 12.249C92.6718 12.2466 92.6754 12.2442 92.6789 12.2419C97.0894 9.25186 103.245 9.2529 107.654 12.2444C107.657 12.246 107.659 12.2475 107.661 12.249C111.098 14.5834 115.898 14.5833 119.334 12.249C119.336 12.2478 119.338 12.2466 119.339 12.2454C123.751 9.25178 129.91 9.25148 134.321 12.245C134.323 12.2466 134.326 12.2481 134.328 12.2493C137.764 14.5836 142.564 14.5836 146 12.2493" stroke="#FFE135" stroke-width="2" stroke-linecap="round"/>
<path d="M71.5518 12.4802C71.5518 12.4802 67.1228 8.28108 68.158 4.59981C69.1935 0.918541 70.5738 -0.922233 72.9897 0.458412C75.4056 1.83879 77.9364 3.44936 77.0161 6.32561C76.0959 9.20159 73.9099 11.8476 73.9099 11.8476C73.9099 11.8476 77.8789 6.15316 80.0646 5.98045C82.2502 5.808 86.9095 7.99367 85.9318 10.1796C84.954 12.3653 83.6309 14.3785 81.4452 14.4362C79.2595 14.4937 75.5205 14.6089 75.5205 14.6089C75.5205 14.6089 80.7549 15.2415 81.7326 16.3345C82.7106 17.4274 82.3654 23.582 80.8698 23.9272C79.3742 24.2724 75.8079 23.3521 74.9452 21.9715C74.0824 20.5908 73.1619 17.1972 73.1619 17.1972C73.1619 17.1972 73.6795 21.9715 71.8965 22.7768C70.1132 23.582 66.9972 24.1278 66.0195 22.8624C65.0418 21.597 64.8788 17.945 65.6841 17.1398C66.4894 16.3345 70.2856 15.299 70.2856 15.299C70.2856 15.299 64.131 16.4494 62.4627 15.1263C60.7946 13.8034 60.5644 9.14412 61.7149 8.33883C62.8653 7.53354 65.2812 6.61329 66.2014 7.41858C67.1228 8.22386 70.3439 12.0201 71.5518 12.4802Z" fill="#FFE135"/>
<path d="M72.7441 13.7459C72.9038 13.7172 79.2311 9.0452 82.7399 9.5262C82.7399 9.5262 74.4791 13.0844 73.5334 14.1773C72.5874 15.27 72.7441 13.7459 72.7441 13.7459Z" fill="#71C32A"/>
<path d="M73.5327 14.8961C73.5327 14.8961 77.1885 16.3054 79.317 20.648C79.317 20.648 74.4853 16.4204 73.1049 15.4424C71.7242 14.4647 73.5327 14.8961 73.5327 14.8961Z" fill="#71C32A"/>
<path d="M72.7339 14.4211C72.7339 14.4211 73.6224 6.92975 71.9541 3.53589L72.1843 14.0333L72.7339 14.4211Z" fill="#71C32A"/>
<path d="M72.0981 14.8015C72.0981 14.8015 64.5628 12.2503 62.6646 10.4095L72.4622 14.2294L72.0981 14.8015Z" fill="#71C32A"/>
<path d="M67.6187 21.6548C67.6187 21.6548 72.5103 17.1561 72.4626 14.5737L71.9545 14.8015C71.9545 14.8015 68.6194 20.4756 67.6187 21.6548Z" fill="#71C32A"/>
<path d="M74.0826 14.5656C74.0826 15.3519 73.4451 15.9894 72.6591 15.9894C71.8728 15.9894 71.2354 15.3519 71.2354 14.5656C71.2354 13.7793 71.8728 13.1418 72.6591 13.1418C73.4451 13.1418 74.0826 13.7793 74.0826 14.5656Z" fill="#629C12"/>
</svg>
